<?xml version="1.0" encoding="UTF-8" standalone="no"?>
<svg
   xmlns:dc="http://purl.org/dc/elements/1.1/"
   xmlns:cc="http://creativecommons.org/ns#"
   xmlns:rdf="http://www.w3.org/1999/02/22-rdf-syntax-ns#"
   xmlns:svg="http://www.w3.org/2000/svg"
   xmlns="http://www.w3.org/2000/svg"
   xmlns:sodipodi="http://sodipodi.sourceforge.net/DTD/sodipodi-0.dtd"
   xmlns:inkscape="http://www.inkscape.org/namespaces/inkscape"
   height="256"
   width="256"
   id="svg2"
   version="1.1"
   inkscape:version="0.91 r13725"
   sodipodi:docname="check.svg"
   inkscape:export-filename="C:\Users\eric\io\code\a2\ui\res\uncheck.png"
   inkscape:export-xdpi="45"
   inkscape:export-ydpi="45">
  <metadata
     id="metadata10">
    <rdf:RDF>
      <cc:Work
         rdf:about="">
        <dc:format>image/svg+xml</dc:format>
        <dc:type
           rdf:resource="http://purl.org/dc/dcmitype/StillImage" />
      </cc:Work>
    </rdf:RDF>
  </metadata>
  <defs
     id="defs8" />
  <sodipodi:namedview
     pagecolor="#ffffff"
     bordercolor="#666666"
     borderopacity="1"
     objecttolerance="10"
     gridtolerance="10"
     guidetolerance="10"
     inkscape:pageopacity="0"
     inkscape:pageshadow="2"
     inkscape:window-width="1920"
     inkscape:window-height="1057"
     id="namedview6"
     showgrid="false"
     inkscape:zoom="0.921875"
     inkscape:cx="84.059562"
     inkscape:cy="58.16466"
     inkscape:window-x="-8"
     inkscape:window-y="-8"
     inkscape:window-maximized="1"
     inkscape:current-layer="svg2" />
  <path
     inkscape:connector-curvature="0"
     d="m 113.55075,205.14205 -71.200003,-71.1 20.1,-19.99999 51.100003,50.89999 143.18343,-141.530689 0.24895,37.431287 z"
     id="path4-4"
     sodipodi:nodetypes="ccccccc" />
  <path
     d="M 28.400391 0 C 12.700391 0 -4.7369516e-015 12.8 0 28.5 L 0 227.59961 C 0 243.19961 12.700391 256 28.400391 256 L 227.5 256 C 243.3 256 255.90039 243.19961 255.90039 227.59961 L 255.90039 81.908203 L 234.57617 103.15039 L 234.57617 208.83398 C 234.57617 221.62952 224.24084 232.12695 211.28125 232.12695 L 47.974609 232.12695 C 35.097043 232.12695 24.679688 221.62952 24.679688 208.83398 L 24.679688 45.525391 C 24.679688 32.647826 35.097043 22.150391 47.974609 22.150391 L 211.28125 22.150391 L 211.28125 22.232422 C 216.9715 22.232422 222.17964 24.28391 226.22266 27.675781 L 246.53125 7.4453125 C 241.49724 2.8876627 234.82553 0.099609375 227.5 0.099609375 L 227.5 0 L 28.400391 0 z "
     id="path4200"
     style="fill:#000000;fill-opacity:0.14556962"
     inkscape:export-filename="C:\Users\eric\io\code\a2\ui\res\check.png"
     inkscape:export-xdpi="45"
     inkscape:export-ydpi="45" />
</svg>
