<svg width="256" height="256" version="1.1" viewBox="0 0 256 256" xmlns="http://www.w3.org/2000/svg"><g transform="translate(-221.07 -78.505)"><g transform="translate(150.26 -223.5)"><g transform="matrix(1.1794 0 0 1.1794 -11.219 -110.66)"><path d="m203.44 529.51 29.968-41.746c11.681-16.272 2.7799-42.541 2.7799-42.541l49.178 84.465z" fill="#dcdcdc"/><path d="m70.812 558 64.576-112.01 31.65 15.87 3.5908-4.9394c5.9949-8.2463 14.381-11.293 23.262-6.8106 7.9788 4.0272 10.955 16.728 5.4303 23.551l-69.985 84.333z" fill="#a7a7a7"/><path d="m145.48 427.77 40.357-68.896 40.304 69.483s-17.284-17.996-40.28-17.702c-22.662 0.28979-40.382 17.114-40.382 17.114z" fill="#7a7a7a"/></g></g></g></svg>
