<?xml version="1.0" encoding="UTF-8" standalone="no"?>
<svg
   xmlns:svg="http://www.w3.org/2000/svg"
   xmlns="http://www.w3.org/2000/svg"
   xmlns:sodipodi="http://sodipodi.sourceforge.net/DTD/sodipodi-0.dtd"
   xmlns:inkscape="http://www.inkscape.org/namespaces/inkscape"
   fill="#000000"
   height="24"
   viewBox="0 0 24 24"
   width="24"
   id="svg4136"
   version="1.1"
   inkscape:version="0.91 r13725"
   sodipodi:docname="autohotkey.svg">
  <defs
     id="defs4144" />
  <sodipodi:namedview
     pagecolor="#ffffff"
     bordercolor="#666666"
     borderopacity="1"
     objecttolerance="10"
     gridtolerance="10"
     guidetolerance="10"
     inkscape:pageopacity="0"
     inkscape:pageshadow="2"
     inkscape:window-width="1509"
     inkscape:window-height="918"
     id="namedview4142"
     showgrid="false"
     inkscape:zoom="18.5625"
     inkscape:cx="7.6214703"
     inkscape:cy="10.154643"
     inkscape:window-x="2202"
     inkscape:window-y="48"
     inkscape:window-maximized="0"
     inkscape:current-layer="svg4136" />
  <path
     style="fill:#29a121;fill-opacity:1"
     d="m 21.422222,0.22222222 -18.8444442,0 c -1.2955556,0 -2.35555558,1.05999998 -2.35555558,2.35555558 l 0,18.8444442 c 0,1.295556 1.05999998,2.355556 2.35555558,2.355556 l 18.8444442,0 c 1.295556,0 2.355556,-1.06 2.355556,-2.355556 l 0,-18.8444442 c 0,-1.2955556 -1.06,-2.35555558 -2.355556,-2.35555558 z"
     id="path4180"
     inkscape:connector-curvature="0" />
  <path
     style="fill:#ffffff;fill-opacity:1"
     d="m 10.905034,4.3444444 -6.0177076,15.3111116 2.4613715,0 1.318099,-3.533334 6.6434031,0 1.341102,3.533334 2.461371,0 -6.017707,-15.3111116 -2.189932,0 z M 12,7.2658855 l 2.438367,6.5007815 -4.8767351,0 L 12,7.2658855 Z"
     id="path4182"
     inkscape:connector-curvature="0" />
</svg>
