<?xml version="1.0" encoding="UTF-8" standalone="no"?>
<!-- Created with Inkscape (http://www.inkscape.org/) -->

<svg
   width="256"
   height="256"
   viewBox="0 0 256 256.00001"
   id="svg2"
   version="1.1"
   inkscape:version="1.4.3 (0d15f75, 2025-12-25)"
   sodipodi:docname="github.svg"
   xml:space="preserve"
   xmlns:inkscape="http://www.inkscape.org/namespaces/inkscape"
   xmlns:sodipodi="http://sodipodi.sourceforge.net/DTD/sodipodi-0.dtd"
   xmlns:xlink="http://www.w3.org/1999/xlink"
   xmlns="http://www.w3.org/2000/svg"
   xmlns:svg="http://www.w3.org/2000/svg"
   xmlns:rdf="http://www.w3.org/1999/02/22-rdf-syntax-ns#"
   xmlns:cc="http://creativecommons.org/ns#"
   xmlns:dc="http://purl.org/dc/elements/1.1/"><defs
     id="defs4"><linearGradient
       id="linearGradient2"
       inkscape:collect="always"><stop
         style="stop-color:#9232af;stop-opacity:1;"
         offset="0"
         id="stop2" /><stop
         style="stop-color:#5b2a8c;stop-opacity:0.99607843;"
         offset="1"
         id="stop3" /></linearGradient><linearGradient
       inkscape:collect="always"
       xlink:href="#linearGradient2"
       id="linearGradient3"
       x1="197.20528"
       y1="548.07166"
       x2="196.13385"
       y2="328.24969"
       gradientUnits="userSpaceOnUse" /></defs><sodipodi:namedview
     id="base"
     pagecolor="#ffffff"
     bordercolor="#666666"
     borderopacity="1.0"
     inkscape:pageopacity="0.0"
     inkscape:pageshadow="2"
     inkscape:zoom="1.979899"
     inkscape:cx="-157.83634"
     inkscape:cy="81.31728"
     inkscape:document-units="px"
     inkscape:current-layer="g4147"
     showgrid="false"
     showguides="false"
     inkscape:guide-bbox="true"
     units="px"
     fit-margin-top="0"
     fit-margin-left="0"
     fit-margin-right="0"
     fit-margin-bottom="0"
     inkscape:window-width="3440"
     inkscape:window-height="1406"
     inkscape:window-x="-11"
     inkscape:window-y="-11"
     inkscape:window-maximized="1"
     inkscape:showpageshadow="0"
     inkscape:pagecheckerboard="0"
     inkscape:deskcolor="#d1d1d1"><sodipodi:guide
       position="114.99875,90.713902"
       orientation="1,0"
       id="guide4163"
       inkscape:locked="false" /><sodipodi:guide
       position="154.99875,-0.00038768074"
       orientation="0,1"
       id="guide4165"
       inkscape:locked="false" /><sodipodi:guide
       position="-0.0012507137,-18.571818"
       orientation="1,0"
       id="guide4167"
       inkscape:locked="false" /><sodipodi:guide
       position="214.64161,-41.786108"
       orientation="1,0"
       id="guide4169"
       inkscape:locked="false" /><sodipodi:guide
       position="214.64161,112.49961"
       orientation="0,1"
       id="guide4171"
       inkscape:locked="false" /><sodipodi:guide
       position="270.71304,28.571042"
       orientation="0,1"
       id="guide4173"
       inkscape:locked="false" /></sodipodi:namedview><metadata
     id="metadata7"><rdf:RDF><cc:Work
         rdf:about=""><dc:format>image/svg+xml</dc:format><dc:type
           rdf:resource="http://purl.org/dc/dcmitype/StillImage" /></cc:Work></rdf:RDF></metadata><g
     inkscape:label="Layer 1"
     inkscape:groupmode="layer"
     id="layer1"
     transform="translate(-221.07268,-78.504656)"><g
       id="g4147"
       transform="translate(150.26019,-223.49625)"><path
         style="fill:#ffffff;stroke:#3a3e41;stroke-width:0.789921;stroke-linecap:round;stroke-linejoin:round;paint-order:stroke fill markers;fill-opacity:1"
         id="path3"
         sodipodi:type="arc"
         sodipodi:cx="198.8125"
         sodipodi:cy="430.00092"
         sodipodi:rx="89.605042"
         sodipodi:ry="89.605034"
         sodipodi:start="0"
         sodipodi:end="6.2801499"
         sodipodi:open="true"
         sodipodi:arc-type="arc"
         d="m 288.41754,430.00092 a 89.605042,89.605034 0 0 1 -89.53704,89.605 89.605042,89.605034 0 0 1 -89.67294,-89.46901 89.605042,89.605034 0 0 1 89.40095,-89.7408 89.605042,89.605034 0 0 1 89.80862,89.33282" /><path
         id="path2"
         style="display:inline;fill:url(#linearGradient3);stroke:#3a3e41;stroke-width:0.78992;stroke-linecap:round;stroke-linejoin:round;paint-order:stroke fill markers"
         d="M 198.54101,309.18059 A 119.60504,119.60503 0 0 0 79.207021,428.9677 119.60504,119.60503 0 0 0 198.90233,548.39153 119.60504,119.60503 0 0 0 318.41796,428.78606 v -0.36328 A 119.60504,119.60503 0 0 0 198.54101,309.18059 Z m 0.008,35.75196 c 47.62721,0 86.25793,38.63049 86.78711,85.72851 0,38.10178 -25.33467,70.09386 -59.63282,82.02539 -2.39522,0.83325 -5.77906,-2.11804 -5.82226,-4.23437 l -0.51172,-25.10938 c -0.15825,-7.75094 -2.58453,-12.92169 -5.68555,-15.50586 18.60614,-2.06736 39.13868,-8.78691 39.13868,-41.34765 0,-9.30307 -3.61872,-17.05502 -8.78711,-22.74024 0.51685,-2.06734 3.61833,-10.85419 -1.03321,-22.22461 0,0 -7.23585,-2.06647 -23.25781,8.78711 -6.71887,-1.55051 -13.95372,-2.58398 -21.18945,-2.58398 -7.23572,0 -14.47253,0.51664 -21.19141,2.58398 -16.02196,-10.85358 -23.25781,-8.78711 -23.25781,-8.78711 -4.65154,11.37042 -2.06688,20.15727 -1.0332,22.22461 -5.6852,6.20206 -8.78516,13.43717 -8.78516,22.74024 0,32.56074 19.63799,39.79788 38.24414,41.86523 -2.06735,2.06734 -4.65112,5.68393 -5.16797,11.36914 -4.65154,2.06735 -16.53846,5.68657 -24.29101,-7.23437 0,0 -4.65055,-8.27028 -12.91993,-8.78711 0,0 -8.27011,-4e-4 -0.51757,5.16797 0,0 5.68487,2.58437 9.30273,12.40429 1.78673,4.84971 0.49668,13.19241 27.98437,10.29688 l -0.0703,17.41015 c -0.009,2.11674 -3.30672,5.09341 -5.82226,4.23438 -33.89176,-11.57355 -58.74024,-43.92362 -58.74024,-82.02539 0,-47.62721 38.63256,-86.25781 86.25977,-86.25781 z" /></g></g></svg>
