<svg width="130" height="20" version="1.1" viewBox="0 0 130 20" xmlns="http://www.w3.org/2000/svg"><style/><g transform="translate(-13 -66.3)"><rect x="13" y="66.3" width="80" height="20" rx="3" ry="3" fill="#3b45fd" fill-rule="evenodd" stroke-width=".453"/><rect x="79" y="66.3" width="64" height="20" rx="3" ry="3" fill="#4f4f4f" fill-rule="evenodd" stroke-width=".453"/><text x="36.608746" y="80.903374" fill="#ffffff" font-family="Calibri" font-size="15.6px" stroke-width=".39" style="font-variant-caps:normal;font-variant-east-asian:normal;font-variant-ligatures:normal;font-variant-numeric:normal;line-height:1.25" xml:space="preserve"><tspan x="36.608746" y="80.903374" fill="#ffffff" stroke-width=".39">Signal</tspan></text><text transform="matrix(.8 0 0 .8 -108 -52.7)" x="240.32533" y="166.96341" fill="#ffffff" font-family="Calibri" font-size="19.5px" stroke-width=".487" style="font-variant-caps:normal;font-variant-east-asian:normal;font-variant-ligatures:normal;font-variant-numeric:normal;inline-size:71.8543;line-height:1.25;white-space:pre" xml:space="preserve"><tspan x="240.32533" y="166.96341">join chat</tspan></text><path d="m22.4 70.1 0.145 0.587a5.84 5.84 0 0 0-1.62 0.672l-0.311-0.519a6.44 6.44 0 0 1 1.79-0.74zm3.1 0-0.145 0.587a5.84 5.84 0 0 1 1.62 0.672l0.313-0.519a6.44 6.44 0 0 0-1.79-0.74zm-7.09 2.93a6.44 6.44 0 0 0-0.74 1.79l0.587 0.145a5.84 5.84 0 0 1 0.673-1.62zm-0.323 3.34a5.85 5.85 0 0 1 0.0657-0.878l-0.599-0.0905a6.49 6.49 0 0 0 0 1.94l0.599-0.091a5.85 5.85 0 0 1-0.0657-0.877zm9.2 5.54-0.311-0.519a5.84 5.84 0 0 1-1.62 0.672l0.145 0.588a6.44 6.44 0 0 0 1.79-0.74zm2.52-5.53a5.85 5.85 0 0 1-0.0657 0.878l0.599 0.0905a6.49 6.49 0 0 0 0-1.94l-0.599 0.091a5.85 5.85 0 0 1 0.0657 0.878zm0.417 1.55-0.587-0.145a5.84 5.84 0 0 1-0.672 1.62l0.519 0.313a6.44 6.44 0 0 0 0.74-1.79zm-5.4 4.24a5.9 5.9 0 0 1-1.76 0l-0.0916 0.599a6.49 6.49 0 0 0 1.94 0zm3.84-2.32a5.88 5.88 0 0 1-1.24 1.24l0.36 0.488a6.47 6.47 0 0 0 1.37-1.37zm-1.24-8.19a5.88 5.88 0 0 1 1.24 1.24l0.488-0.364a6.47 6.47 0 0 0-1.37-1.37zm-8.19 1.24a5.88 5.88 0 0 1 1.24-1.24l-0.364-0.488a6.47 6.47 0 0 0-1.37 1.37zm10.3 0.134-0.519 0.311a5.84 5.84 0 0 1 0.672 1.62l0.588-0.145a6.44 6.44 0 0 0-0.74-1.79zm-6.41-2.45a5.9 5.9 0 0 1 1.76 0l0.0921-0.599a6.49 6.49 0 0 0-1.94 0zm-3.53 11.2-1.25 0.293 0.292-1.25-0.59-0.138-0.292 1.25a0.606 0.606 0 0 0 0.728 0.728l1.25-0.287zm-1.42-1.64 0.59 0.137 0.202-0.867a5.83 5.83 0 0 1-0.652-1.59l-0.587 0.145a6.42 6.42 0 0 0 0.596 1.54zm2.83 1.31-0.867 0.202 0.137 0.59 0.638-0.148a6.42 6.42 0 0 0 1.54 0.596l0.145-0.588a5.83 5.83 0 0 1-1.59-0.656zm3-10.3a5.25 5.25 0 0 0-4.44 8.05l-0.505 2.15 2.15-0.505a5.25 5.25 0 1 0 2.79-9.7z" fill="#fff"/></g></svg>
