<?xml version="1.0" encoding="UTF-8" standalone="no"?>
<svg
   xmlns:dc="http://purl.org/dc/elements/1.1/"
   xmlns:cc="http://creativecommons.org/ns#"
   xmlns:rdf="http://www.w3.org/1999/02/22-rdf-syntax-ns#"
   xmlns:svg="http://www.w3.org/2000/svg"
   xmlns="http://www.w3.org/2000/svg"
   xmlns:xlink="http://www.w3.org/1999/xlink"
   xmlns:sodipodi="http://sodipodi.sourceforge.net/DTD/sodipodi-0.dtd"
   xmlns:inkscape="http://www.inkscape.org/namespaces/inkscape"
   inkscape:export-ydpi="96"
   inkscape:export-xdpi="96"
   inkscape:export-filename="C:\Users\eric\io\code\a2\telegram_join.png"
   sodipodi:docname="telegram_join.svg"
   inkscape:version="1.0 (4035a4fb49, 2020-05-01)"
   id="svg8"
   version="1.1"
   viewBox="0 0 151.33676 20"
   height="20"
   width="151.33676">
  <style
     id="style10"></style>
  <defs
     id="defs2">
    <linearGradient
       gradientTransform="matrix(0.80002185,0,0,0.80002185,-108.19239,21.384386)"
       inkscape:collect="always"
       xlink:href="#tlogo-a"
       id="linearGradient1529"
       x1="208.95351"
       y1="56.773903"
       x2="208.95351"
       y2="81.046944"
       gradientUnits="userSpaceOnUse" />
    <linearGradient
       id="tlogo-a"
       x1="64"
       x2="64"
       y1="0"
       y2="127.05025"
       gradientUnits="userSpaceOnUse">
      <stop
         offset="0%"
         stop-color="#2AABEE"
         id="stop899" />
      <stop
         offset="100%"
         stop-color="#229ED9"
         id="stop901" />
    </linearGradient>
  </defs>
  <sodipodi:namedview
     inkscape:window-maximized="1"
     inkscape:window-y="0"
     inkscape:window-x="0"
     inkscape:window-height="1080"
     inkscape:window-width="1920"
     inkscape:snap-page="true"
     inkscape:snap-bbox="true"
     inkscape:snap-global="true"
     inkscape:lockguides="false"
     fit-margin-bottom="0"
     fit-margin-right="0"
     fit-margin-left="0"
     fit-margin-top="0"
     units="px"
     lock-margins="true"
     showgrid="false"
     inkscape:document-rotation="0"
     inkscape:current-layer="layer1"
     inkscape:document-units="px"
     inkscape:cy="9.7138226"
     inkscape:cx="67.698455"
     inkscape:zoom="2.8"
     inkscape:pageshadow="2"
     inkscape:pageopacity="0.0"
     borderopacity="1.0"
     bordercolor="#666666"
     pagecolor="#ffffff"
     id="base" />
  <metadata
     id="metadata5">
    <rdf:RDF>
      <cc:Work
         rdf:about="">
        <dc:format>image/svg+xml</dc:format>
        <dc:type
           rdf:resource="http://purl.org/dc/dcmitype/StillImage" />
        <dc:title></dc:title>
      </cc:Work>
    </rdf:RDF>
  </metadata>
  <g
     transform="translate(-12.962572,-66.349663)"
     id="layer1"
     inkscape:groupmode="layer"
     inkscape:label="Layer 1">
    <rect
       ry="1.6197979"
       y="66.349663"
       x="12.962572"
       height="19.999998"
       width="128.29617"
       id="rect26"
       style="fill:url(#linearGradient1529);fill-opacity:1;fill-rule:evenodd;stroke-width:0.452548" />
    <rect
       style="fill:#4f4f4f;fill-opacity:1;fill-rule:evenodd;stroke-width:0.452548"
       id="rect1533"
       width="64.992615"
       height="20"
       x="99.306725"
       y="66.349663"
       ry="1.6197979" />
    <text
       id="text855"
       y="80.903374"
       x="36.519459"
       style="font-style:normal;font-variant:normal;font-weight:normal;font-stretch:normal;font-size:15.5947px;line-height:1.25;font-family:Calibri;-inkscape-font-specification:'Calibri, Normal';font-variant-ligatures:normal;font-variant-caps:normal;font-variant-numeric:normal;font-variant-east-asian:normal;fill:#ffffff;fill-opacity:1;stroke:none;stroke-width:0.389867"
       xml:space="preserve"><tspan
         style="fill:#ffffff;fill-opacity:1;stroke-width:0.389867"
         y="80.903374"
         x="36.519459"
         id="tspan853"
         sodipodi:role="line">Telegram</tspan></text>
    <path
       fill="#ffffff"
       fill-rule="nonzero"
       d="m 18.198945,75.648734 c 3.556017,-1.549299 5.92725,-2.57069 7.113698,-3.064177 3.387556,-1.409003 4.091464,-1.653762 4.55026,-1.66193 0.100907,-0.0017 0.326529,0.02331 0.472677,0.141906 0.123412,0.100135 0.157364,0.235403 0.173613,0.330342 0.01624,0.09494 0.03648,0.311212 0.0204,0.4802 -0.183573,1.928819 -0.97789,6.609551 -1.381989,8.769859 -0.170997,0.914108 -0.507678,1.220604 -0.833639,1.250598 -0.708363,0.06519 -1.246266,-0.46814 -1.932357,-0.917882 -1.073597,-0.703756 -1.680118,-1.141846 -2.722226,-1.828582 -1.204337,-0.793643 -0.42362,-1.229843 0.262735,-1.942715 0.179621,-0.186562 3.300714,-3.025439 3.361124,-3.28297 0.0072,-0.03221 0.01456,-0.152266 -0.0568,-0.215661 -0.07128,-0.06339 -0.176589,-0.04171 -0.252551,-0.02447 -0.107683,0.02444 -1.822769,1.158047 -5.14526,3.400823 -0.486822,0.334289 -0.92777,0.497166 -1.322844,0.48863 -0.435532,-0.0094 -1.273331,-0.246259 -1.896148,-0.448712 -0.763917,-0.248317 -1.371054,-0.379605 -1.318188,-0.801324 0.02752,-0.219658 0.330025,-0.444301 0.907465,-0.67393 z"
       id="path1531"
       style="stroke-width:0.190596" />
    <text
       xml:space="preserve"
       style="font-style:normal;font-variant:normal;font-weight:normal;font-stretch:normal;font-size:19.4928px;line-height:1.25;font-family:Calibri;-inkscape-font-specification:'Calibri, Normal';font-variant-ligatures:normal;font-variant-caps:normal;font-variant-numeric:normal;font-variant-east-asian:normal;white-space:pre;inline-size:71.8543;fill:#ffffff;fill-opacity:1;stroke:none;stroke-width:0.487321"
       x="240.32533"
       y="166.96341"
       id="text1537"
       transform="matrix(0.80002185,0,0,0.80002185,-87.51903,-52.650725)"><tspan
         x="240.32533"
         y="166.96341"><tspan
           style="stroke-width:0.487321">join chat</tspan></tspan></text>
  </g>
</svg>
