<?xml version="1.0" encoding="UTF-8"?>
<svg width="150" height="20" version="1.1" viewBox="0 0 150 20" xmlns="http://www.w3.org/2000/svg" xmlns:cc="http://creativecommons.org/ns#" xmlns:dc="http://purl.org/dc/elements/1.1/" xmlns:rdf="http://www.w3.org/1999/02/22-rdf-syntax-ns#" xmlns:xlink="http://www.w3.org/1999/xlink">
 <style/>
 <defs>
  <linearGradient id="linearGradient1529" x1="208.95" x2="208.95" y1="56.774" y2="81.047" gradientTransform="matrix(.80002 0 0 .80002 -108.19 21.384)" gradientUnits="userSpaceOnUse">
   <stop stop-color="#2AABEE" offset="0"/>
   <stop stop-color="#229ED9" offset="1"/>
  </linearGradient>
 </defs>
 <metadata>
  <rdf:RDF>
   <cc:Work rdf:about="">
    <dc:format>image/svg+xml</dc:format>
    <dc:type rdf:resource="http://purl.org/dc/dcmitype/StillImage"/>
   </cc:Work>
  </rdf:RDF>
 </metadata>
 <g transform="translate(-12.963 -66.35)">
  <g>
   <rect x="12.963" y="66.35" width="98" height="20" rx="3" ry="3" fill="url(#linearGradient1529)" fill-rule="evenodd" stroke-width=".45255"/>
   <rect x="98.963" y="66.35" width="64" height="20" rx="3" ry="3" fill="#4f4f4f" fill-rule="evenodd" stroke-width=".45255"/>
   <text x="36.519459" y="80.903374" fill="#ffffff" font-family="Calibri" font-size="15.595px" stroke-width=".38987" style="font-variant-caps:normal;font-variant-east-asian:normal;font-variant-ligatures:normal;font-variant-numeric:normal;line-height:1.25" xml:space="preserve"><tspan x="36.519459" y="80.903374" fill="#ffffff" stroke-width=".38987">Telegram</tspan></text>
  </g>
  <path d="m18.199 75.649c3.556-1.5493 5.9272-2.5707 7.1137-3.0642 3.3876-1.409 4.0915-1.6538 4.5503-1.6619 0.10091-0.0017 0.32653 0.02331 0.47268 0.14191 0.12341 0.10014 0.15736 0.2354 0.17361 0.33034 0.01624 0.09494 0.03648 0.31121 0.0204 0.4802-0.18357 1.9288-0.97789 6.6096-1.382 8.7699-0.171 0.91411-0.50768 1.2206-0.83364 1.2506-0.70836 0.06519-1.2463-0.46814-1.9324-0.91788-1.0736-0.70376-1.6801-1.1418-2.7222-1.8286-1.2043-0.79364-0.42362-1.2298 0.26274-1.9427 0.17962-0.18656 3.3007-3.0254 3.3611-3.283 0.0072-0.03221 0.01456-0.15227-0.0568-0.21566-0.07128-0.06339-0.17659-0.04171-0.25255-0.02447-0.10768 0.02444-1.8228 1.158-5.1453 3.4008-0.48682 0.33429-0.92777 0.49717-1.3228 0.48863-0.43553-0.0094-1.2733-0.24626-1.8961-0.44871-0.76392-0.24832-1.3711-0.3796-1.3182-0.80132 0.02752-0.21966 0.33002-0.4443 0.90746-0.67393z" fill="#fff" stroke-width=".1906"/>
  <text transform="matrix(.80002 0 0 .80002 -87.519 -52.651)" x="240.32533" y="166.96341" fill="#ffffff" font-family="Calibri" font-size="19.493px" stroke-width=".48732" style="font-variant-caps:normal;font-variant-east-asian:normal;font-variant-ligatures:normal;font-variant-numeric:normal;inline-size:71.8543;line-height:1.25;white-space:pre" xml:space="preserve"><tspan x="240.32533" y="166.96341">join chat</tspan></text>
 </g>
</svg>
