<?xml version="1.0" encoding="UTF-8" standalone="no"?>
<svg
   inkscape:export-ydpi="96"
   inkscape:export-xdpi="96"
   inkscape:export-filename="C:\Users\eric\io\code\a2\telegram_join.png"
   sodipodi:docname="signal_join.svg"
   inkscape:version="1.4.3 (0d15f75, 2025-12-25)"
   id="svg8"
   version="1.1"
   viewBox="0 0 130 20"
   height="20"
   width="130"
   xml:space="preserve"
   xmlns:inkscape="http://www.inkscape.org/namespaces/inkscape"
   xmlns:sodipodi="http://sodipodi.sourceforge.net/DTD/sodipodi-0.dtd"
   xmlns="http://www.w3.org/2000/svg"
   xmlns:svg="http://www.w3.org/2000/svg"
   xmlns:rdf="http://www.w3.org/1999/02/22-rdf-syntax-ns#"
   xmlns:cc="http://creativecommons.org/ns#"
   xmlns:dc="http://purl.org/dc/elements/1.1/"><style
     id="style10" /><defs
     id="defs2"><linearGradient
       id="tlogo-a"
       x1="64"
       x2="64"
       y1="0"
       y2="127.05025"
       gradientUnits="userSpaceOnUse"><stop
         offset="0"
         stop-color="#2AABEE"
         id="stop899"
         style="stop-color:#3b45fd;stop-opacity:1;" /><stop
         offset="100%"
         stop-color="#229ED9"
         id="stop901" /></linearGradient></defs><sodipodi:namedview
     inkscape:window-maximized="1"
     inkscape:window-y="-11"
     inkscape:window-x="-11"
     inkscape:window-height="1406"
     inkscape:window-width="3440"
     inkscape:snap-page="true"
     inkscape:snap-bbox="true"
     inkscape:snap-global="true"
     inkscape:lockguides="false"
     fit-margin-bottom="0"
     fit-margin-right="0"
     fit-margin-left="0"
     fit-margin-top="0"
     units="px"
     lock-margins="true"
     showgrid="true"
     inkscape:document-rotation="0"
     inkscape:current-layer="layer1"
     inkscape:document-units="px"
     inkscape:cy="6.2108598"
     inkscape:cx="122.53624"
     inkscape:zoom="63.356767"
     inkscape:pageshadow="2"
     inkscape:pageopacity="0.0"
     borderopacity="1.0"
     bordercolor="#666666"
     pagecolor="#ffffff"
     id="base"
     inkscape:showpageshadow="2"
     inkscape:pagecheckerboard="0"
     inkscape:deskcolor="#d1d1d1"><inkscape:grid
       id="grid2"
       units="px"
       originx="0"
       originy="0"
       spacingx="1"
       spacingy="1"
       empcolor="#0099e5"
       empopacity="0.30196078"
       color="#0099e5"
       opacity="0.14901961"
       empspacing="5"
       enabled="true"
       visible="true" /></sodipodi:namedview><metadata
     id="metadata5"><rdf:RDF><cc:Work
         rdf:about=""><dc:format>image/svg+xml</dc:format><dc:type
           rdf:resource="http://purl.org/dc/dcmitype/StillImage" /></cc:Work></rdf:RDF></metadata><g
     transform="translate(-12.962572,-66.349663)"
     id="layer1"
     inkscape:groupmode="layer"
     inkscape:label="Layer 1"><rect
       ry="3"
       y="66.349663"
       x="12.962572"
       height="20"
       width="80"
       id="rect26"
       style="fill:#3b45fd;fill-opacity:1;fill-rule:evenodd;stroke-width:0.452548"
       rx="3" /><rect
       style="fill:#4f4f4f;fill-opacity:1;fill-rule:evenodd;stroke-width:0.452548"
       id="rect1533"
       width="64"
       height="19.999992"
       x="78.96257"
       y="66.349663"
       ry="3"
       rx="3" /><text
       id="text855"
       y="80.903374"
       x="36.608746"
       style="font-style:normal;font-variant:normal;font-weight:normal;font-stretch:normal;font-size:15.5947px;line-height:1.25;font-family:Calibri;-inkscape-font-specification:'Calibri, Normal';font-variant-ligatures:normal;font-variant-caps:normal;font-variant-numeric:normal;font-variant-east-asian:normal;fill:#ffffff;fill-opacity:1;stroke:none;stroke-width:0.389867"
       xml:space="preserve"><tspan
         style="fill:#ffffff;fill-opacity:1;stroke-width:0.389867"
         y="80.903374"
         x="36.608746"
         id="tspan853"
         sodipodi:role="line">Signal</tspan></text><text
       xml:space="preserve"
       style="font-style:normal;font-variant:normal;font-weight:normal;font-stretch:normal;font-size:19.4928px;line-height:1.25;font-family:Calibri;-inkscape-font-specification:'Calibri, Normal';font-variant-ligatures:normal;font-variant-caps:normal;font-variant-numeric:normal;font-variant-east-asian:normal;white-space:pre;inline-size:71.8543;display:inline;fill:#ffffff;fill-opacity:1;stroke:none;stroke-width:0.487321"
       x="240.32533"
       y="166.96341"
       id="text1537"
       transform="matrix(0.80002185,0,0,0.80002185,-107.97462,-52.650725)"><tspan
         x="240.32533"
         y="166.96341"
         id="tspan3">join chat</tspan></text><path
       d="m 22.360434,70.073661 0.145446,0.587172 a 5.8420881,5.8420881 0 0 0 -1.624149,0.672284 L 20.570368,70.81382 a 6.4400335,6.4400335 0 0 1 1.790066,-0.740159 z m 3.102851,0 -0.145446,0.587172 a 5.8420881,5.8420881 0 0 1 1.624149,0.672284 l 0.312979,-0.519297 a 6.4400335,6.4400335 0 0 0 -1.791682,-0.740159 z m -7.08646,2.934242 a 6.4400335,6.4400335 0 0 0 -0.74016,1.789529 l 0.587172,0.145446 a 5.8420881,5.8420881 0 0 1 0.672823,-1.624149 z m -0.323214,3.340955 a 5.8480136,5.8480136 0 0 1 0.06572,-0.878064 l -0.599023,-0.0905 a 6.4874381,6.4874381 0 0 0 0,1.937127 l 0.599023,-0.09104 a 5.8480136,5.8480136 0 0 1 -0.06572,-0.876987 z m 9.19974,5.535029 -0.311363,-0.519296 a 5.8420881,5.8420881 0 0 1 -1.621994,0.671745 l 0.145446,0.587711 a 6.4400335,6.4400335 0 0 0 1.787911,-0.74016 z m 2.516757,-5.534491 a 5.8480136,5.8480136 0 0 1 -0.06572,0.878064 l 0.599023,0.0905 a 6.4874381,6.4874381 0 0 0 0,-1.937127 l -0.599023,0.09104 a 5.8480136,5.8480136 0 0 1 0.06572,0.878064 z m 0.416946,1.551426 -0.587172,-0.145446 a 5.8420881,5.8420881 0 0 1 -0.672284,1.624144 l 0.519297,0.312978 a 6.4400335,6.4400335 0 0 0 0.740159,-1.791676 z m -5.397669,4.242175 a 5.8997278,5.8997278 0 0 1 -1.755051,0 l -0.09158,0.599023 a 6.4874381,6.4874381 0 0 0 1.937666,0 z m 3.838163,-2.317981 a 5.8792576,5.8792576 0 0 1 -1.241141,1.240063 l 0.359845,0.488053 a 6.4745096,6.4745096 0 0 0 1.369349,-1.365578 z m -1.241141,-8.191849 a 5.8792576,5.8792576 0 0 1 1.241141,1.241141 l 0.488053,-0.363615 a 6.4745096,6.4745096 0 0 0 -1.365578,-1.365578 z m -8.190236,1.241141 a 5.8792576,5.8792576 0 0 1 1.241141,-1.241141 l -0.363615,-0.488052 a 6.4745096,6.4745096 0 0 0 -1.365578,1.365578 z m 10.250724,0.133595 -0.519297,0.310826 a 5.8420881,5.8420881 0 0 1 0.671746,1.621994 l 0.58771,-0.145446 a 6.4400335,6.4400335 0 0 0 -0.740159,-1.787374 z m -6.412561,-2.451576 a 5.8997278,5.8997278 0 0 1 1.755051,0 l 0.09212,-0.599023 a 6.4874381,6.4874381 0 0 0 -1.937667,0 z m -3.527339,11.156796 -1.251376,0.292508 0.29197,-1.251376 -0.589865,-0.138443 -0.29197,1.251376 a 0.60602573,0.60602573 0 0 0 0.728309,0.728308 l 1.250298,-0.286583 z m -1.423218,-1.638155 0.589865,0.137366 0.202009,-0.867291 a 5.8329303,5.8329303 0 0 1 -0.651814,-1.590206 l -0.587172,0.145447 a 6.4157924,6.4157924 0 0 0 0.595791,1.536337 z m 2.828121,1.312786 -0.867291,0.202009 0.137366,0.589865 0.638347,-0.14814 a 6.4157924,6.4157924 0 0 0 1.535804,0.595791 l 0.145446,-0.58771 A 5.8329303,5.8329303 0 0 1 20.916207,81.383983 Z M 23.91186,71.097171 a 5.252223,5.252223 0 0 0 -4.444189,8.046947 l -0.505291,2.154752 2.154758,-0.50529 a 5.252223,5.252223 0 1 0 2.794722,-9.696409 z"
       id="path1"
       style="fill:#ffffff;fill-opacity:1;stroke-width:1" /></g></svg>
