<?xml version="1.0" encoding="UTF-8" standalone="no"?>
<svg
   xmlns:dc="http://purl.org/dc/elements/1.1/"
   xmlns:cc="http://creativecommons.org/ns#"
   xmlns:rdf="http://www.w3.org/1999/02/22-rdf-syntax-ns#"
   xmlns:svg="http://www.w3.org/2000/svg"
   xmlns="http://www.w3.org/2000/svg"
   xmlns:sodipodi="http://sodipodi.sourceforge.net/DTD/sodipodi-0.dtd"
   xmlns:inkscape="http://www.inkscape.org/namespaces/inkscape"
   height="256"
   width="256"
   version="1.1"
   id="svg4"
   sodipodi:docname="folder2.svg"
   inkscape:version="0.92.1 r15371">
  <metadata
     id="metadata10">
    <rdf:RDF>
      <cc:Work
         rdf:about="">
        <dc:format>image/svg+xml</dc:format>
        <dc:type
           rdf:resource="http://purl.org/dc/dcmitype/StillImage" />
      </cc:Work>
    </rdf:RDF>
  </metadata>
  <defs
     id="defs8" />
  <sodipodi:namedview
     pagecolor="#ffffff"
     bordercolor="#666666"
     borderopacity="1"
     objecttolerance="10"
     gridtolerance="10"
     guidetolerance="10"
     inkscape:pageopacity="0"
     inkscape:pageshadow="2"
     inkscape:window-width="3200"
     inkscape:window-height="1749"
     id="namedview6"
     showgrid="false"
     inkscape:zoom="3.6875"
     inkscape:cx="265.70789"
     inkscape:cy="148.31609"
     inkscape:window-x="-14"
     inkscape:window-y="-14"
     inkscape:window-maximized="1"
     inkscape:current-layer="svg4"
     showguides="true"
     inkscape:guide-bbox="true" />
  <path
     d="m 25.900391,25.900391 c -14,0 -25.400391,11.5 -25.400391,25.5 L 0.44921875,90.671875 C 1.8268763,77.937078 12.72216,67.900391 25.800781,67.900391 H 230.09961 c 14,0 25.5,11.5 25.5,25.5 v -16.5 c 0,-14 -11.5,-25.5 -25.5,-25.5 H 128 l -25.5,-25.5 z M 0.30078125,204.59961 c 0,14 11.49999975,25.5 25.49999975,25.5 H 230.09961 c 14,0 25.5,-11.5 25.5,-25.5 v -93.19922 c 0,-13.999999 -11.5,-25.499999 -25.5,-25.499999 H 25.800781 c -14,0 -25.49999975,11.5 -25.49999975,25.499999 z"
     id="path2"
     inkscape:connector-curvature="0"
     sodipodi:nodetypes="sccsscssccscssscsscc" />
</svg>
