<svg height="256" width="256" xmlns="http://www.w3.org/2000/svg"><path d="m 230.3 38.5-204.6 0c-25.9 0-25.4 25.6-25.4 25.6L 0.1 191.9c 0 0-0.3 25.6 25.6 25.6l 204.6 0c 25.5 0 25.6,-25.6 25.6,-25.6l 0,-127.9c 0 0 0.3,-25.6-25.6,-25.6zm-115.1 38.4 25.6 0 0 25.6-25.6 0zm 0 38.4 25.6 0 0 25.6-25.6 0zm-38.4,-38.4 25.6 0 0 25.6-25.6 0zm 0 38.4 25.6 0 0 25.6-25.6 0zm-12.8 25.6-25.6 0 0,-25.6 25.6 0zm 0,-38.4-25.6 0 0,-25.6 25.6 0zm 115.1 89.5-102.3 0 0,-25.6 102.3 0zm 0,-51.1-25.6 0 0,-25.6 25.6 0zm 0,-38.4-25.6 0 0,-25.6 25.6 0zm 38.4 38.4-25.6 0 0,-25.6 25.6 0zm 0,-38.4-25.6 0 0,-25.6 25.6 0z"/></svg>