<?xml version="1.0" encoding="UTF-8" standalone="no"?>
<svg
   xmlns:dc="http://purl.org/dc/elements/1.1/"
   xmlns:cc="http://creativecommons.org/ns#"
   xmlns:rdf="http://www.w3.org/1999/02/22-rdf-syntax-ns#"
   xmlns:svg="http://www.w3.org/2000/svg"
   xmlns="http://www.w3.org/2000/svg"
   xmlns:sodipodi="http://sodipodi.sourceforge.net/DTD/sodipodi-0.dtd"
   xmlns:inkscape="http://www.inkscape.org/namespaces/inkscape"
   fill="#000000"
   height="24"
   viewBox="0 0 24 24"
   width="24"
   version="1.1"
   id="svg6"
   sodipodi:docname="label_plus.svg"
   inkscape:version="0.92.1 r15371">
  <metadata
     id="metadata12">
    <rdf:RDF>
      <cc:Work
         rdf:about="">
        <dc:format>image/svg+xml</dc:format>
        <dc:type
           rdf:resource="http://purl.org/dc/dcmitype/StillImage" />
        <dc:title></dc:title>
      </cc:Work>
    </rdf:RDF>
  </metadata>
  <defs
     id="defs10" />
  <sodipodi:namedview
     pagecolor="#ffffff"
     bordercolor="#666666"
     borderopacity="1"
     objecttolerance="10"
     gridtolerance="10"
     guidetolerance="10"
     inkscape:pageopacity="0"
     inkscape:pageshadow="2"
     inkscape:window-width="1822"
     inkscape:window-height="955"
     id="namedview8"
     showgrid="false"
     inkscape:zoom="6.9532167"
     inkscape:cx="0.26741415"
     inkscape:cy="9.8949222"
     inkscape:window-x="1014"
     inkscape:window-y="620"
     inkscape:window-maximized="0"
     inkscape:current-layer="svg6" />
  <path
     d="M0 0h24v24H0z"
     fill="none"
     id="path2" />
  <path
     d="M 16 5 L 5 5.0097656 C 3.9 5.0097656 3 5.9 3 7 L 3 17 C 3 18.1 3.9 18.990234 5 18.990234 L 16 19 C 16.67 19 17.270859 18.670156 17.630859 18.160156 L 22 12 L 17.630859 5.8398438 C 17.270859 5.3298438 16.67 5 16 5 z M 9.6015625 6.5019531 L 11.882812 6.5019531 L 11.882812 10.8125 L 15.925781 10.8125 L 15.925781 13.09375 L 11.882812 13.09375 L 11.882812 17.402344 L 9.6015625 17.402344 L 9.6015625 13.09375 L 5.5449219 13.09375 L 5.5449219 10.8125 L 9.6015625 10.8125 L 9.6015625 6.5019531 z "
     id="path4" />
  <g
     aria-label="+"
     style="font-style:normal;font-variant:normal;font-weight:bold;font-stretch:normal;font-size:25.9579792px;line-height:125%;font-family:Candara;-inkscape-font-specification:'Candara, Bold';font-variant-ligatures:normal;font-variant-caps:normal;font-variant-numeric:normal;font-feature-settings:normal;text-align:start;letter-spacing:0px;word-spacing:0px;writing-mode:lr-tb;text-anchor:start;fill:#000000;fill-opacity:1;stroke:none;stroke-width:0.6489495px;stroke-linecap:butt;stroke-linejoin:miter;stroke-opacity:1"
     id="text4491" />
</svg>
