<?xml version="1.0" ?><svg height="256" width="256" xmlns="http://www.w3.org/2000/svg"><path d="m 2.8 38.5 9.7,-14.9 9.0 14.9 0 57.7-9.0 13.9-9.7,-13.9z"/><path d="m 2.8 129.3 9.7,-14.9 9.0 14.9 0 57.7-9.0 13.9-9.7,-13.9z"/><path d="m 94.7 38.5 9.7,-14.9 9.0 14.9 0 57.7-9.0 13.9-9.7,-13.9z"/><path d="m 94.7 129.3 9.7,-14.9 9.0 14.9 0 57.7-9.0 13.9-9.7,-13.9z"/><path d="m 86.6 12.0 14.9 9.7-14.9 9.0-57.7 0-13.9,-9.0 13.9,-9.7z"/><path d="m 86.6 195.4 14.9 9.7-14.9 9.0-57.7 0-13.9,-9.0 13.9,-9.7z"/><path d="m 143.7 38.5 9.7,-14.9 9.0 14.9 0 57.7-9.0 13.9-9.7,-13.9z"/><path d="m 143.7 129.3 9.7,-14.9 9.0 14.9 0 57.7-9.0 13.9-9.7,-13.9z"/><path d="m 227.5 103.2 14.9 9.7-14.9 9.0-57.7 0-13.9,-9.0 13.9,-9.7z"/><path d="m 235.6 38.5 9.7,-14.9 9.0 14.9 0 57.7-9.0 13.9-9.7,-13.9z"/><path d="m 235.6 129.3 9.7,-14.9 9.0 14.9 0 57.7-9.0 13.9-9.7,-13.9z"/><path d="m 227.5 12.0 14.9 9.7-14.9 9.0-57.7 0-13.9,-9.0 13.9,-9.7z"/><path d="m 227.5 195.4 14.9 9.7-14.9 9.0-57.7 0-13.9,-9.0 13.9,-9.7z"/><path d="m 115.3 212.1 13.1,-7.0 12.2 7.0 0 27.0-12.2 6.5-13.1,-6.5z"/></svg>