<svg width="24" height="24" fill="#000000" version="1.1" viewBox="0 0 24 24" xmlns="http://www.w3.org/2000/svg"><path d="m1.2734 0-1.2734 1.2734v2.8281l4.1016-4.1016h-2.8281zm5.6562 0-6.9297 6.9297v2.8281l9.7578-9.7578h-2.8281zm5.6563 0-12.586 12.586v2.8281l15.414-15.414h-2.8281zm5.6562 0-18.242 18.242v2.8281l21.07-21.07h-2.8281zm5.6582 0-23.9 23.898v0.10156h2.7266l21.273-21.271v-2.7285h-0.099609zm0.099609 5.5566-18.445 18.443h2.8281l15.617-15.615v-2.8281zm0 5.6563-12.785 12.787h2.8281l9.957-9.959v-2.8281zm0 5.6582-7.1289 7.1289h2.8281l4.3008-4.3008v-2.8281zm0 5.6562-1.4727 1.4727h1.4727v-1.4727z" color="#000000" color-rendering="auto" dominant-baseline="auto" fill="#f0f" image-rendering="auto" shape-rendering="auto" solid-color="#000000" stop-color="#000000" style="font-feature-settings:normal;font-variant-alternates:normal;font-variant-caps:normal;font-variant-east-asian:normal;font-variant-ligatures:normal;font-variant-numeric:normal;font-variant-position:normal;font-variation-settings:normal;inline-size:0;isolation:auto;mix-blend-mode:normal;paint-order:normal;shape-margin:0;shape-padding:0;text-decoration-color:#000000;text-decoration-line:none;text-decoration-style:solid;text-indent:0;text-orientation:mixed;text-transform:none;white-space:normal"/></svg>
