<svg width="128" height="128" version="1.1" viewBox="0 0 33.9 33.9" xmlns="http://www.w3.org/2000/svg"><path d="m33.9 17a17 17 0 0 1-17 17 17 17 0 0 1-17-17 17 17 0 0 1 17-17 17 17 0 0 1 17 17z" fill="#23a0dc"/><path d="m6.93 15.8c5.34-2.32 8.89-3.86 10.7-4.6 5.09-2.11 6.14-2.48 6.83-2.49 0.151-0.00252 0.489 0.0349 0.709 0.213 0.185 0.15 0.236 0.354 0.26 0.494 0.0244 0.142 0.0546 0.466 0.0306 0.72-0.275 2.89-1.47 9.91-2.07 13.1-0.256 1.37-0.76 1.83-1.25 1.87-1.06 0.0977-1.87-0.703-2.89-1.38-1.61-1.05-2.52-1.71-4.09-2.74-1.81-1.19-0.634-1.84 0.394-2.91 0.269-0.28 4.94-4.54 5.03-4.91 0.0112-0.0483 0.0218-0.228-0.0851-0.323-0.107-0.0951-0.265-0.0626-0.38-0.0366-0.161 0.0366-2.73 1.74-7.71 5.09-0.729 0.5-1.39 0.746-1.98 0.731-0.654-0.0141-1.91-0.369-2.84-0.671-1.15-0.371-2.05-0.569-1.98-1.2 0.0411-0.329 0.494-0.666 1.36-1.01z" fill="#fff"/></svg>
