<svg width="128" height="128" version="1.1" viewBox="0 0 33.9 33.9" xmlns="http://www.w3.org/2000/svg"><g transform="scale(.265)"><path d="m128 64a64 64 0 0 1-64 64 64 64 0 0 1-64-64 64 64 0 0 1 64-64 64 64 0 0 1 64 64z" fill="#23a0dc"/><path d="m29 63.3c18.7-8.13 31.1-13.5 37.3-16.1 17.8-7.39 21.5-8.68 23.9-8.72 0.529-0.0089 1.71 0.122 2.48 0.745 0.647 0.525 0.826 1.24 0.911 1.73 0.0852 0.498 0.191 1.63 0.107 2.52-0.963 10.1-5.13 34.7-7.25 46-0.897 4.8-2.66 6.4-4.37 6.56-3.72 0.342-6.54-2.46-10.1-4.82-5.63-3.69-8.82-5.99-14.3-9.59-6.32-4.16-2.22-6.45 1.38-10.2 0.942-0.979 17.3-15.9 17.6-17.2 0.0396-0.169 0.0764-0.799-0.298-1.13-0.374-0.333-0.927-0.219-1.33-0.128-0.565 0.128-9.56 6.08-27 17.8-2.55 1.75-4.87 2.61-6.94 2.56-2.29-0.0494-6.68-1.29-9.95-2.35-4.01-1.3-7.19-1.99-6.92-4.2 0.144-1.15 1.73-2.33 4.76-3.54z" fill="#fff"/></g></svg>
